<svg width="500" height="500" viewbox = "0 0 500 500"  xmlns="http://www.w3.org/2000/svg">
<!--<json>{
  "glyph": "0223,",
  "x0": 250,
  "y0": 316.55,
  "unit": 71.6919339848302,
  "width": 500,
  "height": 500,
  "style": {
    "color0": "black",
    "fill0": "black",
    "line0": 5,
    "color1": "black",
    "fill1": "black",
    "line1": 25,
    "color2": "red",
    "fill2": "red",
    "line2": 1,
    "color3": "#FF7900",
    "fill3": "#FF7900",
    "line3": 1,
    "color4": "yellow",
    "fill4": "yellow",
    "line4": 1,
    "color5": "green",
    "fill5": "green",
    "line5": 1,
    "color6": "blue",
    "fill6": "blue",
    "line6": 1,
    "color7": "purple",
    "fill7": "purple",
    "line7": 1
  },
  "shapes": [
    "0220:0314,0336,0313,0333,0331,0331,0337,0337,0332,0362,0203,0336,0336,0333,0350,0334,0345,0335,0330,0335,0335,0337,0337,0203,0336,0336,0335,0333,0334,0334,0345,0335,0330,0335,0335,0337,0337,0203,0335,0336,0336,0333,0334,0334,0345,0335,0330,0335,0335,0337,0337,0203,0335,0336,0336,0333,0334,0334,0345,0333,0364,0335,0335,0335,0304,0337,0330,0333,0336,0333,0314,0337,0313,",
    "0221:0201,0336,0336,0336,0334,0331,0337,0306,0362,0203,0335,0335,0203,0335,0335,0203,0363,0334,0336,0331,0304,0334,0337,0337,0337,0331,",
    "0222:0334,0336,0331,0337,0342,0335,0201,0336,0201,0334,0337,0201,0336,0334,0201,0201,0201,0335,0335,0333,0330,0336,0331,0330,0336,0331,0337,0201,0201,0201,0332,0331,0331,0331,0201,0201,0201,0333,0333,0331,0331,0331,0201,0201,0201,0330,0330,0335,0336,0333,0330,0330,0337,0201,0334,0201,0334,0201,0201,0201,0201,0201,0201,0334,0201,0334,0201,0334,0333,0333,0330,0332,0201,0335,0201,0201,0335,0201,0335,0335,0331,0331,0331,0331,0331,0331,0331,0332,0337,0337,",
    "0223:0222,0330,0330,0336,0330,0337,0221,0331,0331,0335,0336,0332,0337,0330,0221,0335,0335,0330,0330,0221,0334,0332,0330,0336,0330,0337,0221,0335,0335,0330,0330,0336,0331,0337,0350,0335,0330,0304,0336,0330,0337,0221,0335,0335,0330,0330,0330,0221,0331,0336,0331,0337,0335,0330,0336,0330,0337,0221,0335,0335,0330,0330,0330,0221,0335,0335,0335,0332,0336,0332,0334,0350,0335,0337,0304,0337,0337,0321,0210,0210,0220,",
    "01220:0333,0200,0336,0330,0332,0210,0220,0211,0333,0331,0337,",
    "01221:0333,0200,0336,0336,0336,0330,0330,0330,0330,0221,",
    "01224:0333,0200,0336,0330,0332,0224,0331,0333,0337,",
    "01225:0333,0200,0336,0330,0332,0225,0331,0333,0337,",
    "01226:0333,0200,0336,0330,0332,0226,0331,0333,0337,",
    "01227:0333,0200,0336,0330,0332,0227,0331,0333,0337,",
    "01230:0333,0200,0336,0330,0332,0230,0331,0333,0337,",
    "01231:0333,0200,0336,0330,0332,0231,0331,0333,0337,",
    "01232:0333,0200,0336,0330,0332,0232,0331,0333,0337,",
    "01233:0333,0200,0336,0330,0332,0233,0331,0333,0337,",
    "01234:0333,0200,0336,0330,0332,0234,0331,0333,0337,",
    "01235:0333,0200,0336,0330,0332,0235,0331,0333,0337,",
    "01236:0333,0200,0336,0330,0332,0236,0331,0333,0337,",
    "01237:0333,0200,0336,0330,0332,0237,0331,0333,0337,",
    "0240:0220,0336,0331,0333,0336,0321,0335,0342,0335,0335,0342,0335,0330,0330,0332,0332,0337,0337,",
    "01240:0333,0200,0336,0330,0332,0210,0240,0211,0333,0331,0337,",
    "0241:0220,0336,0321,0343,0332,0350,0335,0336,0342,0334,0334,0342,0335,0304,0337,0333,0337,",
    "01241:0333,0200,0336,0332,0330,0210,0241,0211,0333,0331,0337,",
    "0242:0220,0321,0336,0343,0333,0336,0350,0335,0342,0334,0334,0342,0335,0337,0304,0332,0337,",
    "01242:0333,0200,0336,0330,0332,0210,0242,0211,0333,0331,0337,",
    "0243:0220,0336,0331,0332,0336,0321,0343,0332,0350,0334,0336,0342,0335,0335,0342,0337,0334,0334,0335,0304,0332,0330,0330,0337,0337,0333,",
    "01243:0333,0200,0336,0330,0332,0210,0243,0211,0333,0331,0337,",
    "0244:0220,0336,0331,0333,0336,0321,0343,0333,0350,0336,0335,0342,0334,0334,0342,0335,0337,0304,0333,0330,0330,0337,0337,0332,",
    "01244:0333,0200,0336,0330,0332,0210,0244,0211,0333,0331,0337,",
    "0245:0210,0332,0332,0362,0335,0203,0203,0203,0203,0334,0203,0363,0332,0332,0331,0211,",
    "01245:0333,0200,0336,0330,0332,0336,0245,0337,0333,0331,0337,",
    "0246:0210,0332,0332,0335,0306,0336,0330,0335,0335,0335,0321,0362,0203,0335,0335,0203,0364,0331,0350,0335,0337,0366,0333,0333,0333,0333,0334,0334,0334,0334,0367,0335,0336,0342,0334,0334,0342,0330,0330,0330,0330,0335,0335,0335,0304,0337,0211,",
    "01246:0333,0200,0336,0330,0332,0336,0246,",
    "0247:0330,0332,0336,0332,0336,0221,0333,0333,0333,0222,0333,0333,0333,0223,0333,0333,0333,0225,0333,0331,0331,0331,0332,0332,0332,0332,0332,0332,0332,0332,0332,0332,0332,0332,0333,0333,0226,0331,0331,0331,0333,0333,0333,0333,0333,0333,0333,0333,0333,0333,0333,0333,0333,0330,0333,0330,0330,0333,0330,0331,0332,0332,0332,0332,0332,0332,0332,0332,0332,0332,0332,0332,0227,0333,0333,0333,0230,0333,0331,0331,0331,0331,0332,0332,0332,0330,0332,0332,0332,0332,0332,0332,0333,0333,0231,0333,0333,0333,0232,0331,0333,0330,0333,0333,0233,0333,0333,0333,0234,0330,0330,0332,0330,0332,0332,0337,0337,",
    "01247:0333,0200,0336,0330,0332,0220,0336,0247,0337,0331,0333,0337,"
  ]
}</json>-->    <line x1="286" y1="317" x2="214" y2="317" style="stroke:#000000;stroke-width:5" />
    <line x1="286" y1="317" x2="286" y2="245" style="stroke:#000000;stroke-width:5" />
    <line x1="286" y1="245" x2="286" y2="209" style="stroke:#000000;stroke-width:5" />
    <line x1="286" y1="209" x2="214" y2="209" style="stroke:#000000;stroke-width:5" />
    <line x1="214" y1="209" x2="214" y2="245" style="stroke:#000000;stroke-width:5" />
    <line x1="214" y1="245" x2="214" y2="281" style="stroke:#000000;stroke-width:5" />
    <line x1="214" y1="281" x2="214" y2="317" style="stroke:#000000;stroke-width:5" />
    <line x1="250" y1="290" x2="250" y2="272" style="stroke:#000000;stroke-width:5" />
    <line x1="250" y1="272" x2="250" y2="254" style="stroke:#000000;stroke-width:5" />
    <line x1="250" y1="254" x2="250" y2="236" style="stroke:#000000;stroke-width:5" />
    <line x1="232" y1="290" x2="232" y2="272" style="stroke:#000000;stroke-width:5" />
    <line x1="232" y1="272" x2="232" y2="254" style="stroke:#000000;stroke-width:5" />
    <line x1="232" y1="254" x2="232" y2="236" style="stroke:#000000;stroke-width:5" />
    <line x1="268" y1="290" x2="268" y2="272" style="stroke:#000000;stroke-width:5" />
    <line x1="268" y1="272" x2="268" y2="254" style="stroke:#000000;stroke-width:5" />
    <line x1="268" y1="254" x2="268" y2="236" style="stroke:#000000;stroke-width:5" />
    <line x1="286" y1="209" x2="304" y2="209" style="stroke:#000000;stroke-width:5" />
    <line x1="304" y1="209" x2="304" y2="191" style="stroke:#000000;stroke-width:5" />
    <line x1="304" y1="191" x2="286" y2="191" style="stroke:#000000;stroke-width:5" />
    <line x1="286" y1="191" x2="268" y2="191" style="stroke:#000000;stroke-width:5" />
    <line x1="268" y1="191" x2="250" y2="191" style="stroke:#000000;stroke-width:5" />
    <line x1="250" y1="191" x2="232" y2="191" style="stroke:#000000;stroke-width:5" />
    <line x1="232" y1="191" x2="214" y2="191" style="stroke:#000000;stroke-width:5" />
    <line x1="214" y1="191" x2="196" y2="191" style="stroke:#000000;stroke-width:5" />
    <line x1="196" y1="191" x2="196" y2="209" style="stroke:#000000;stroke-width:5" />
    <line x1="196" y1="209" x2="214" y2="209" style="stroke:#000000;stroke-width:5" />
    <line x1="232" y1="191" x2="232" y2="173" style="stroke:#000000;stroke-width:5" />
    <line x1="232" y1="173" x2="250" y2="173" style="stroke:#000000;stroke-width:5" />
    <line x1="250" y1="173" x2="268" y2="173" style="stroke:#000000;stroke-width:5" />
    <line x1="268" y1="173" x2="268" y2="191" style="stroke:#000000;stroke-width:5" />
    <line x1="250" y1="137" x2="250" y2="66" style="stroke:#000000;stroke-width:5" />
	<path d = "M259 66 L241 66 L250 50 L259 66 Z" stroke = "#000000" stroke-width = "5" fill = "#000000" />    <line x1="322" y1="245" x2="393" y2="245" style="stroke:#000000;stroke-width:5" />
	<path d = "M393 254 L393 236 L409 245 L393 254 Z" stroke = "#000000" stroke-width = "5" fill = "#000000" />    <line x1="178" y1="245" x2="107" y2="245" style="stroke:#000000;stroke-width:5" />
	<path d = "M107 236 L107 254 L91 245 L107 236 Z" stroke = "#000000" stroke-width = "5" fill = "#000000" />    <line x1="250" y1="352" x2="250" y2="424" style="stroke:#000000;stroke-width:5" />
	<path d = "M241 424 L259 424 L250 440 L241 424 Z" stroke = "#000000" stroke-width = "5" fill = "#000000" />    <line x1="326" y1="169" x2="377" y2="118" style="stroke:#000000;stroke-width:5" />
	<path d = "M383 124 L370 112 L388 107 L383 124 Z" stroke = "#000000" stroke-width = "5" fill = "#000000" />    <line x1="174" y1="321" x2="123" y2="372" style="stroke:#000000;stroke-width:5" />
	<path d = "M117 365 L130 378 L112 383 L117 365 Z" stroke = "#000000" stroke-width = "5" fill = "#000000" />    <line x1="174" y1="169" x2="123" y2="118" style="stroke:#000000;stroke-width:5" />
	<path d = "M130 112 L117 124 L112 107 L130 112 Z" stroke = "#000000" stroke-width = "5" fill = "#000000" />    <line x1="326" y1="321" x2="377" y2="372" style="stroke:#000000;stroke-width:5" />
	<path d = "M370 378 L383 365 L388 383 L370 378 Z" stroke = "#000000" stroke-width = "5" fill = "#000000" />	<path d = "M31 391 L31 99 M30.928943496068527 98.81069501254852           A73.02368550131052 73.02368550131052 0 0 1 103.95262899737914 25.787009511237954L396 26 M396.04737100262093 25.78700951123878           A73.02368550131052 73.02368550131052 0 0 1 469.0710565039314 98.8106950125495L469 391 M469.0710565039301 390.90543701779137           A73.02368550131052 73.02368550131052 0 0 1 396.04737100261923 463.92912251910167L104 464 M103.95262899737739 463.92912251909985           A73.02368550131052 73.02368550131052 0 0 1 30.92894349606719 390.90543701778887" stroke = "#000000" stroke-width = "25" fill = "none" /></svg>